<svg width="118" height="33" viewBox="0 0 118 33" fill="none" xmlns="http://www.w3.org/2000/svg">
<g clip-path="url(#clip0_93_5)">
<path d="M99.6914 23.2028V9.32998C99.6914 9.19213 99.8042 9.07935 99.942 9.07935H102.016C102.154 9.07935 102.267 9.19213 102.267 9.32998V23.2028C102.267 23.3406 102.154 23.4534 102.016 23.4534H99.942C99.8042 23.4534 99.6914 23.3406 99.6914 23.2028Z" fill="#00A29A"/>
<path d="M104.535 23.2028V9.32998C104.535 9.19213 104.648 9.07935 104.786 9.07935H106.86C106.998 9.07935 107.11 9.19213 107.11 9.32998V23.2028C107.11 23.3406 106.998 23.4534 106.86 23.4534H104.786C104.648 23.4534 104.535 23.3406 104.535 23.2028Z" fill="#00A29A"/>
<path d="M118.001 20.853V21.6613C118.001 22.6514 117.199 23.4534 116.209 23.4534H109.974C109.642 23.4534 109.379 23.184 109.379 22.8581V21.4546C109.379 21.1225 109.648 20.8593 109.974 20.8593H118.001V20.853Z" fill="#00A29A"/>
<path d="M115.4 19.274V19.8693C115.4 19.5372 115.131 19.274 114.805 19.274H115.4Z" fill="#00A29A"/>
<path d="M115.4 20.2578V20.8531H114.805C115.137 20.8531 115.4 20.5899 115.4 20.2578Z" fill="#00A29A"/>
<path d="M112.574 16.6736H111.979V16.0784C111.972 16.4042 112.242 16.6736 112.574 16.6736Z" fill="#00A29A"/>
<path d="M115.401 15.0947H112.537C112.224 15.1073 111.967 15.3704 111.967 15.69V15.0947H115.401Z" fill="#00A29A"/>
<path d="M117.999 18.4658V19.2741H111.163C110.173 19.2741 109.371 18.472 109.371 17.482V16.6737H116.207C117.197 16.6737 117.999 17.4757 117.999 18.4658Z" fill="#00A29A"/>
<path d="M118 13.641V14.4994C118 14.8315 117.731 15.0947 117.405 15.0947H115.406V13.641H118Z" fill="#00A29A"/>
<path d="M118.001 18.4658V21.6614C118.001 22.6514 117.199 23.4534 116.209 23.4534H115.4V16.6737H116.209C117.199 16.6737 118.001 17.4757 118.001 18.4658Z" fill="#00A29A"/>
<path d="M111.971 13.641V19.2741H111.163C110.173 19.2741 109.371 18.472 109.371 17.482V13.641H111.971Z" fill="#00A29A"/>
<path d="M111.973 20.853V23.4534H109.974C109.642 23.4534 109.379 23.184 109.379 22.8581V21.4546C109.379 21.1225 109.648 20.8593 109.974 20.8593H111.973V20.853Z" fill="#00A29A"/>
<path d="M118.001 13.0896V14.4931C118.001 14.8252 117.731 15.0884 117.406 15.0884H109.379V13.6848C109.379 13.666 109.379 13.6535 109.379 13.6347C109.404 12.9956 109.93 12.488 110.569 12.488H117.406C117.738 12.4943 118.001 12.7637 118.001 13.0896Z" fill="#00A29A"/>
<path d="M79.4831 9.64958V22.8456C79.4831 22.996 79.4267 23.1339 79.339 23.2404C79.2262 23.3657 79.0695 23.4472 78.8878 23.4472H78.6999C77.8038 23.4472 77.0582 22.7892 76.9329 21.9308C76.9203 21.8431 76.9141 21.7554 76.9141 21.6614V10.8464C76.9141 9.85636 77.7161 9.05432 78.7061 9.05432H78.8941C79.057 9.05432 79.2074 9.12325 79.3202 9.22977C79.4142 9.33629 79.4831 9.48667 79.4831 9.64958Z" fill="#00A29A"/>
<path d="M80.0795 20.8782C79.7474 20.8782 79.4843 20.6087 79.4843 20.2829V12.2249C79.4843 11.9179 79.7161 11.661 80.0231 11.6296H79.4843H79.0645V20.8719H79.4843H86.1011L80.0795 20.8782Z" fill="#00A29A"/>
<path d="M86.6392 9.64958V11.0344C86.6392 11.3602 86.3698 11.6296 86.0439 11.6296H77.5035C77.1714 11.6296 76.9082 11.3602 76.9082 11.0344V10.8464C76.9082 9.85636 77.7102 9.05432 78.7003 9.05432H86.0439C86.3698 9.05432 86.6392 9.32376 86.6392 9.64958Z" fill="#00A29A"/>
<path d="M80.0788 20.8782H79.4835H79.0637H77.5035C77.1714 20.8782 76.9082 21.1476 76.9082 21.4734V21.6614C76.9082 21.7554 76.9145 21.8431 76.927 21.9308C76.9333 21.9684 76.9395 22.0123 76.9521 22.0499C76.9583 22.0875 76.9709 22.1314 76.9834 22.169C76.9897 22.194 76.9959 22.2191 77.0085 22.2441C77.0147 22.2692 77.0273 22.2943 77.0335 22.3193C77.0398 22.3444 77.0523 22.3695 77.0649 22.3945C77.0711 22.4196 77.0836 22.4447 77.0962 22.4635C77.1087 22.4885 77.1212 22.5136 77.1338 22.5324C77.1463 22.5574 77.1588 22.5762 77.1714 22.6013C77.4847 23.1151 78.0486 23.4597 78.694 23.4597H86.0377C86.3698 23.4597 86.6329 23.1903 86.6329 22.8645V21.486C86.6329 21.1789 86.4011 20.922 86.0941 20.8907L80.0788 20.8782Z" fill="#00A29A"/>
<path d="M91.4073 12.5381V23.4471H90.6241C89.6341 23.4471 88.832 22.6451 88.832 21.6551V14.3239C88.832 13.3339 89.6341 12.5319 90.6241 12.5319H91.4073V12.5381Z" fill="#00A29A"/>
<path d="M97.4538 14.3301V17.4944C97.4538 17.8892 97.3285 18.2589 97.1092 18.5534C96.7833 18.9983 96.257 19.2802 95.668 19.2802H94.8848V12.5381H95.668C96.6518 12.5381 97.4538 13.3401 97.4538 14.3301Z" fill="#00A29A"/>
<path d="M97.4542 21.4922V22.8519C97.4542 23.184 97.1848 23.4471 96.8589 23.4471H94.8789V20.8906H96.8589C97.191 20.8969 97.4542 21.1663 97.4542 21.4922Z" fill="#00A29A"/>
<path d="M97.4539 14.33V15.0945H94.722C94.6155 14.9754 94.4588 14.9002 94.2834 14.9002H92.0026C91.8271 14.9002 91.6705 14.9754 91.564 15.0945H88.832V14.33C88.832 13.34 89.6341 12.538 90.6241 12.538H95.6682C96.6519 12.538 97.4539 13.34 97.4539 14.33Z" fill="#00A29A"/>
<path d="M97.4539 16.7112V17.4945C97.4539 17.8892 97.3286 18.2589 97.1093 18.5534C96.7835 18.9983 96.2572 19.2803 95.6682 19.2803H88.832V16.705H97.4539V16.7112Z" fill="#00A29A"/>
<path d="M97.4551 21.4922V22.8519C97.4551 23.184 97.1857 23.4472 96.8598 23.4472H90.6252C90.4059 23.4472 90.1991 23.4096 90.0112 23.3406C89.9297 23.3093 89.8483 23.2717 89.7731 23.2341C89.7229 23.2028 89.6728 23.1777 89.6227 23.1464C89.5538 23.0963 89.4848 23.0461 89.4222 22.9897C89.3783 22.9521 89.3407 22.9083 89.3031 22.8707C89.2467 22.808 89.1903 22.7391 89.1465 22.6702C89.1151 22.62 89.0838 22.5762 89.0587 22.5198C89.0212 22.4446 88.9836 22.3631 88.9522 22.2817C88.8833 22.0937 88.8457 21.8807 88.8457 21.6676V20.9032H96.8724C97.1919 20.8969 97.4551 21.1664 97.4551 21.4922Z" fill="#00A29A"/>
<path d="M91.4077 16.7111V15.5018C91.4077 15.3451 91.4704 15.2073 91.5644 15.1007C91.6709 14.9817 91.8276 14.9065 92.003 14.9065H94.2838C94.4592 14.9065 94.6159 14.9817 94.7224 15.1007C94.8164 15.2073 94.8791 15.3451 94.8791 15.5018V16.7111H91.4077ZM95.6623 12.538H90.6182C89.6282 12.538 88.8262 13.34 88.8262 14.33V21.6612C88.8262 21.8805 88.8638 22.0872 88.9327 22.2752C88.964 22.3567 89.0016 22.4381 89.0392 22.5133C89.0705 22.5635 89.0956 22.6136 89.1269 22.6637C89.1771 22.7326 89.2272 22.8016 89.2836 22.8642C89.3212 22.9081 89.365 22.9457 89.4026 22.9833C89.4653 23.0397 89.5342 23.0961 89.6031 23.1399C89.6533 23.1712 89.6971 23.2026 89.7535 23.2276C89.8287 23.2652 89.9102 23.3028 89.9916 23.3342C90.1796 23.4031 90.3927 23.4407 90.6057 23.4407H95.6498C95.8691 23.4407 96.0884 23.4031 96.2826 23.3279C96.8466 23.1149 97.2726 22.6261 97.4042 22.0308C97.4293 21.9118 97.4418 21.7802 97.4418 21.6549V21.492C97.4418 21.1599 97.1724 20.8967 96.8466 20.8967H91.9905C91.6584 20.8967 91.3952 20.6273 91.3952 20.3015V19.2864H95.656C96.2513 19.2864 96.7714 18.9981 97.0972 18.5595C97.3165 18.265 97.4418 17.8953 97.4418 17.5006V14.3363C97.4544 13.34 96.6523 12.538 95.6623 12.538Z" fill="#00A29A"/>
<path d="M95.5115 17.0684H90.8058V15.2388C90.8058 15.1887 90.8058 15.1448 90.8183 15.0947C90.8622 14.7375 91.094 14.4367 91.4073 14.2864C91.5452 14.2174 91.7018 14.1798 91.871 14.1798H94.4526C94.6092 14.1798 94.7533 14.2112 94.8849 14.2738C95.217 14.4179 95.4551 14.7312 95.5052 15.1009C95.5115 15.1511 95.5178 15.1949 95.5178 15.245V17.0684H95.5115ZM96.5517 18.7477C96.7647 18.7477 96.9589 18.6725 97.1093 18.5597C97.3286 18.2652 97.4539 17.8955 97.4539 17.5008V15.1009C97.4477 13.6848 96.301 12.5444 94.8912 12.5444H91.3948C89.9787 12.5444 88.832 13.6848 88.832 15.1009V20.7779C88.832 20.8217 88.832 20.8656 88.832 20.9032C88.8947 22.2629 90.0226 23.3406 91.3948 23.3406H94.8912C95.9439 23.3406 96.8524 22.7078 97.2472 21.7992C97.1406 21.7115 97.0091 21.6551 96.8649 21.6551H91.8773C91.7144 21.6551 91.5514 21.6175 91.4136 21.5486C91.1504 21.4233 90.9436 21.1852 90.8622 20.9032C90.8309 20.8029 90.8183 20.7027 90.8183 20.5899V18.7477H96.5517V18.7477Z" fill="#00A29A"/>
<path d="M97.4551 22.2503V22.739C97.4551 23.0711 97.1857 23.3343 96.8598 23.3343H92.3609C92.0288 23.3343 91.7656 23.0649 91.7656 22.739V22.2503C91.7656 21.9182 92.0351 21.655 92.3609 21.655H96.8598C97.0039 21.655 97.1418 21.7114 97.2421 21.7991C97.3172 21.8618 97.3799 21.9495 97.4175 22.0435C97.4426 22.1062 97.4551 22.1751 97.4551 22.2503Z" fill="#00A29A"/>
<path d="M86.602 9.7498V10.2385C86.602 10.4328 86.5205 10.6082 86.3889 10.7273C86.2699 10.8401 86.107 10.909 85.9315 10.909H79.7408C79.3711 10.909 79.0703 10.6082 79.0703 10.2385V9.7498C79.0703 9.38011 79.3711 9.07935 79.7408 9.07935H85.9315C86.2949 9.07935 86.602 9.37385 86.602 9.7498Z" fill="#00A29A"/>
<path d="M86.602 22.2128V22.7016C86.602 23.0712 86.3012 23.372 85.9315 23.372H79.7408C79.653 23.372 79.5716 23.3532 79.4964 23.3281C79.2458 23.2342 79.0703 22.9898 79.0703 22.7016V22.2128C79.0703 21.8431 79.3711 21.5424 79.7408 21.5424H85.9315C86.1007 21.5424 86.2573 21.605 86.3764 21.7115C86.5142 21.8369 86.602 22.0123 86.602 22.2128Z" fill="#00A29A"/>
<path d="M114.836 17.0622H112.442C112.398 17.0622 112.354 17.0622 112.311 17.0559H114.522C114.629 17.0497 114.735 17.0559 114.836 17.0622Z" fill="#00A29A"/>
<path d="M111.353 15.2763V15.9656C111.353 16.5233 111.772 16.9869 112.311 17.0496H114.523C114.63 17.0496 114.736 17.0496 114.837 17.0559C116.015 17.1123 116.823 17.4945 117.343 17.9958C116.892 18.4657 116.259 18.7539 115.563 18.7539H112.719C111.428 18.7539 110.538 18.3905 110.005 17.814C109.579 17.3566 109.379 16.7676 109.379 16.1222V15.2889C109.379 13.7474 110.601 12.4943 112.719 12.4943H115.563C116.547 12.4943 117.406 13.0707 117.8 13.9104C117.681 14.0795 117.481 14.1861 117.255 14.1861H112.443C111.841 14.1861 111.353 14.6748 111.353 15.2763Z" fill="#00A29A"/>
<path d="M118 19.0735V21.3104C117.749 22.338 116.966 23.1464 115.399 23.2842C115.18 23.303 114.948 23.3093 114.704 23.303H111.821C110.819 23.303 109.954 22.7265 109.547 21.8869C109.647 21.7553 109.798 21.6613 109.967 21.63H115.004C115.142 21.63 115.28 21.6049 115.406 21.5548C115.719 21.4295 115.957 21.1726 116.051 20.8468C116.082 20.7528 116.095 20.6462 116.095 20.546V19.8379C116.095 19.6312 116.038 19.4369 115.932 19.2677C115.813 19.0672 115.625 18.9106 115.406 18.8229C115.28 18.7727 115.149 18.7477 115.004 18.7477H112.717C112.454 18.7477 112.21 18.7351 111.978 18.7038C111.082 18.591 110.43 18.2652 110.004 17.8078C110.462 17.3378 111.107 17.0433 111.821 17.0433H114.522C114.629 17.0433 114.735 17.0433 114.835 17.0496C115.036 17.0559 115.224 17.0809 115.406 17.106C116.283 17.2376 116.916 17.5697 117.342 17.9895C117.68 18.3278 117.893 18.7038 118 19.0735Z" fill="#00A29A"/>
<path d="M115.156 22.3005V22.6389C115.156 22.9835 114.892 23.2717 114.554 23.3093C114.529 23.3093 114.51 23.3093 114.485 23.3093H110.086C109.717 23.3093 109.416 23.0086 109.416 22.6389V22.3005C109.416 22.1501 109.466 22.006 109.554 21.8932C109.654 21.7616 109.804 21.6676 109.974 21.6363C110.011 21.63 110.049 21.6238 110.093 21.6238H114.491C114.529 21.6238 114.567 21.6238 114.604 21.6363C114.911 21.6927 115.156 21.9684 115.156 22.3005Z" fill="#00A29A"/>
<path d="M117.925 13.1647V13.5093C117.925 13.6597 117.875 13.7913 117.8 13.9041C117.681 14.0733 117.48 14.1798 117.255 14.1798H112.856C112.486 14.1798 112.186 13.879 112.186 13.5093V13.1647C112.186 12.795 112.486 12.4943 112.856 12.4943H117.255C117.624 12.4943 117.925 12.795 117.925 13.1647Z" fill="#00A29A"/>
<path d="M35.8984 23.2028V10.2511C35.8984 10.1133 36.0112 10.0005 36.1491 10.0005H38.2231C38.3609 10.0005 38.4737 10.1133 38.4737 10.2511V23.2028C38.4737 23.3407 38.3609 23.4534 38.2231 23.4534H36.1491C36.0112 23.4534 35.8984 23.3407 35.8984 23.2028Z" fill="#1C284C"/>
<path d="M68.6198 9.65581V22.8519C68.6198 23.184 68.3504 23.4471 68.0245 23.4471H66.646C66.314 23.4471 66.0508 23.1777 66.0508 22.8519V9.65581C66.0508 9.32372 66.3202 9.06055 66.646 9.06055H68.0245C68.3504 9.06055 68.6198 9.32998 68.6198 9.65581Z" fill="#1C284C"/>
<path d="M74.671 14.1986V22.8581C74.671 23.1902 74.4016 23.4533 74.0757 23.4533H72.691C72.3589 23.4533 72.0957 23.1839 72.0957 22.8581V12.5193H72.8852C73.8314 12.5193 74.6083 13.2587 74.671 14.1986Z" fill="#1C284C"/>
<path d="M73.3815 14.092V23.4471H72.6922C72.3601 23.4471 72.097 23.1776 72.097 22.8518V15.6961C72.097 15.364 71.8275 15.1008 71.5017 15.1008H69.9102V13.503H72.7862C73.112 13.4968 73.3815 13.7662 73.3815 14.092Z" fill="#1C284C"/>
<path d="M74.6712 14.3113V15.0946H66.043V12.5193H72.8791C73.8315 12.5193 74.6085 13.2587 74.6649 14.1923C74.6712 14.2362 74.6712 14.2737 74.6712 14.3113Z" fill="#1C284C"/>
<path d="M57.753 12.5193V23.4533H56.9573C56.0362 23.4533 55.2717 22.7516 55.1777 21.8555V14.1171C55.2717 13.2211 56.0362 12.5193 56.9573 12.5193H57.753Z" fill="#1C284C"/>
<path d="M63.8063 21.4733V22.8581C63.8063 23.1902 63.5369 23.4533 63.2111 23.4533H56.9639C56.0428 23.4533 55.2784 22.7516 55.1844 21.8555C55.1781 21.7929 55.1719 21.724 55.1719 21.6613V20.8781H63.2111C63.5369 20.8781 63.8063 21.1412 63.8063 21.4733Z" fill="#1C284C"/>
<path d="M63.8067 13.1209V14.5057C63.8067 14.8315 63.5373 15.1009 63.2115 15.1009H55.166V14.3177C55.166 14.255 55.166 14.1861 55.1785 14.1234C55.2725 13.2274 56.037 12.5256 56.9581 12.5256H63.2052C63.5373 12.5194 63.8067 12.7888 63.8067 13.1209Z" fill="#1C284C"/>
<path d="M57.7542 15.6961V20.2828C57.7542 20.6149 58.0237 20.878 58.3495 20.878H63.2056C63.5314 20.878 63.8009 21.1475 63.8009 21.4733V21.6613C63.8009 21.7929 63.7883 21.9245 63.757 22.056C63.6254 22.645 63.1993 23.1275 62.6417 23.3406C62.4474 23.4157 62.2344 23.4533 62.0088 23.4533H56.9522C56.0311 23.4533 55.2667 22.7516 55.1727 21.8555C55.1664 21.7929 55.1602 21.7239 55.1602 21.6613V14.3113C55.1602 14.2487 55.1602 14.1798 55.1727 14.1171C55.2667 13.2211 56.0311 12.5193 56.9522 12.5193H62.0088C62.9988 12.5193 63.8009 13.3213 63.8009 14.3113V14.4993C63.8009 14.8252 63.5314 15.0946 63.2056 15.0946H58.3495C58.0237 15.0946 57.7542 15.364 57.7542 15.6961Z" fill="#1C284C"/>
<path d="M32.5709 9.06055H41.8007C41.9385 9.06055 42.0513 9.17333 42.0513 9.31118V11.3852C42.0513 11.5231 41.9385 11.6358 41.8007 11.6358H32.5709C32.4331 11.6358 32.3203 11.5231 32.3203 11.3852V9.31118C32.3203 9.17333 32.4331 9.06055 32.5709 9.06055Z" fill="#1C284C"/>
<path d="M60.8054 21.6551C60.7866 21.6551 60.7678 21.6551 60.749 21.6551H58.2175C58.0546 21.6551 57.898 21.6175 57.7538 21.5548C57.4719 21.4295 57.2526 21.1789 57.1648 20.8781C57.1335 20.7779 57.1147 20.6651 57.1147 20.5586V15.314C57.1147 15.2451 57.121 15.1699 57.1335 15.1009C57.2024 14.75 57.4343 14.4555 57.7538 14.3114C57.8917 14.2425 58.0483 14.2112 58.2175 14.2112H63.1989C63.3431 14.2112 63.4809 14.1548 63.5812 14.0671C63.1864 13.1585 62.2841 12.5256 61.2252 12.5256H57.735C56.3941 12.5256 55.2913 13.5532 55.1785 14.8628C55.1723 14.938 55.166 15.0132 55.166 15.0884V20.7716C55.166 20.8029 55.166 20.8405 55.166 20.8781C55.166 20.9157 55.166 20.9596 55.1723 20.9972C55.2851 22.3068 56.3879 23.3344 57.7288 23.3344H61.2189C62.2716 23.3344 63.1801 22.7015 63.5749 21.7929C63.4684 21.7052 63.3368 21.6488 63.1927 21.6488H60.8054V21.6551Z" fill="#1C284C"/>
<path d="M46.8761 12.5381V23.4471H46.0928C45.1028 23.4471 44.3008 22.6451 44.3008 21.6551V14.3239C44.3008 13.3339 45.1028 12.5319 46.0928 12.5319H46.8761V12.5381Z" fill="#1C284C"/>
<path d="M52.9225 14.3301V17.4944C52.9225 17.8892 52.7972 18.2589 52.5779 18.5534C52.2521 18.9983 51.7258 19.2802 51.1368 19.2802H50.3535V12.5381H51.1368C52.1205 12.5381 52.9225 13.3401 52.9225 14.3301Z" fill="#1C284C"/>
<path d="M52.923 21.4984V22.8581C52.923 23.1902 52.6535 23.4533 52.3277 23.4533H50.3477V20.8969H52.3277C52.6598 20.8969 52.923 21.1663 52.923 21.4984Z" fill="#1C284C"/>
<path d="M52.9227 14.33V15.0945H50.1908C50.0842 14.9754 49.9276 14.9002 49.7521 14.9002H47.4713C47.2959 14.9002 47.1393 14.9754 47.0327 15.0945H44.3008V14.33C44.3008 13.34 45.1028 12.538 46.0928 12.538H51.1369C52.1207 12.538 52.9227 13.34 52.9227 14.33Z" fill="#1C284C"/>
<path d="M52.9227 16.7112V17.4945C52.9227 17.8892 52.7974 18.2589 52.5781 18.5534C52.2522 18.9983 51.7259 19.2803 51.1369 19.2803H44.3008V16.705H52.9227V16.7112Z" fill="#1C284C"/>
<path d="M52.9238 21.4984V22.8581C52.9238 23.1902 52.6544 23.4533 52.3286 23.4533H46.094C45.8747 23.4533 45.6679 23.4157 45.4799 23.3468C45.3985 23.3155 45.317 23.2779 45.2418 23.2403C45.1917 23.209 45.1416 23.1839 45.0914 23.1526C45.0225 23.1024 44.9536 23.0523 44.8909 22.9959C44.8471 22.9583 44.8095 22.9145 44.7719 22.8769C44.7155 22.8142 44.6591 22.7453 44.6152 22.6763C44.5839 22.6262 44.5526 22.5824 44.5275 22.526C44.4899 22.4508 44.4523 22.3693 44.421 22.2879C44.352 22.0999 44.3145 21.8868 44.3145 21.6738V20.9094H52.3411C52.6607 20.8968 52.9238 21.1663 52.9238 21.4984Z" fill="#1C284C"/>
<path d="M46.8765 16.7111V15.5018C46.8765 15.3451 46.9391 15.2073 47.0331 15.1007C47.1397 14.9817 47.2963 14.9065 47.4717 14.9065H49.7525C49.928 14.9065 50.0846 14.9817 50.1912 15.1007C50.2852 15.2073 50.3478 15.3451 50.3478 15.5018V16.7111H46.8765ZM51.1311 12.538H46.087C45.097 12.538 44.2949 13.34 44.2949 14.33V21.6612C44.2949 21.8805 44.3325 22.0872 44.4014 22.2752C44.4328 22.3567 44.4704 22.4381 44.508 22.5133C44.5393 22.5635 44.5644 22.6136 44.5957 22.6637C44.6458 22.7326 44.6959 22.8016 44.7523 22.8642C44.7899 22.9081 44.8338 22.9457 44.8714 22.9833C44.934 23.0397 45.003 23.0961 45.0719 23.1399C45.122 23.1712 45.1659 23.2026 45.2223 23.2276C45.2975 23.2652 45.3789 23.3028 45.4604 23.3342C45.6484 23.4031 45.8614 23.4407 46.0744 23.4407H51.1185C51.3378 23.4407 51.5571 23.4031 51.7514 23.3279C52.3153 23.1149 52.7414 22.6261 52.873 22.0308C52.898 21.9118 52.9106 21.7802 52.9106 21.6549V21.492C52.9106 21.1599 52.6411 20.8967 52.3153 20.8967H47.4592C47.1271 20.8967 46.864 20.6273 46.864 20.3015V19.2864H51.1248C51.72 19.2864 52.2401 18.9981 52.566 18.5595C52.7853 18.265 52.9106 17.8953 52.9106 17.5006V14.3363C52.9231 13.34 52.1211 12.538 51.1311 12.538Z" fill="#1C284C"/>
<path d="M50.9803 17.0684H46.2745V15.2388C46.2745 15.1887 46.2746 15.1448 46.2871 15.0947C46.3309 14.7375 46.5628 14.4367 46.8761 14.2864C47.0139 14.2174 47.1706 14.1798 47.3398 14.1798H49.9213C50.078 14.1798 50.2221 14.2112 50.3537 14.2738C50.6858 14.4179 50.9239 14.7312 50.974 15.1009C50.9803 15.1511 50.9865 15.1949 50.9865 15.245V17.0684H50.9803ZM52.0204 18.7477C52.2335 18.7477 52.4277 18.6725 52.5781 18.5597C52.7974 18.2652 52.9227 17.8955 52.9227 17.5008V15.1009C52.9164 13.6848 51.7698 12.5444 50.3599 12.5444H46.8635C45.4474 12.5444 44.3008 13.6848 44.3008 15.1009V20.7779C44.3008 20.8217 44.3008 20.8656 44.3008 20.9032C44.3634 22.2629 45.4913 23.3406 46.8635 23.3406H50.3599C51.4126 23.3406 52.3212 22.7078 52.7159 21.7992C52.6094 21.7115 52.4778 21.6551 52.3337 21.6551H47.346C47.1831 21.6551 47.0202 21.6175 46.8823 21.5486C46.6192 21.4233 46.4124 21.1852 46.3309 20.9032C46.2996 20.8029 46.2871 20.7027 46.2871 20.5899V18.7477H52.0204V18.7477Z" fill="#1C284C"/>
<path d="M52.9238 22.2503V22.739C52.9238 23.0711 52.6544 23.3343 52.3286 23.3343H47.8296C47.4975 23.3343 47.2344 23.0649 47.2344 22.739V22.2503C47.2344 21.9182 47.5038 21.655 47.8296 21.655H52.3286C52.4727 21.655 52.6105 21.7114 52.7108 21.7991C52.786 21.8618 52.8486 21.9495 52.8862 22.0435C52.9113 22.1062 52.9238 22.1751 52.9238 22.2503Z" fill="#1C284C"/>
<path d="M63.7949 22.2503V22.739C63.7949 23.0711 63.5255 23.3343 63.1997 23.3343H58.7007C58.3686 23.3343 58.1055 23.0649 58.1055 22.739V22.2503C58.1055 21.9433 58.3373 21.6864 58.6443 21.655C58.6631 21.655 58.6819 21.655 58.707 21.655H63.2059C63.3501 21.655 63.4879 21.7114 63.5882 21.7991C63.7135 21.9057 63.7949 22.0686 63.7949 22.2503Z" fill="#1C284C"/>
<path d="M68.1358 9.83752V22.6764C68.1358 23.1088 67.7912 23.4534 67.3588 23.4534H66.8199C66.3939 23.4534 66.043 23.1088 66.043 22.6764V9.83752C66.043 9.41144 66.3876 9.06055 66.8199 9.06055H67.3588C67.7912 9.06055 68.1358 9.40517 68.1358 9.83752Z" fill="#1C284C"/>
<path d="M63.8075 13.1208V14.5056C63.8075 14.8314 63.538 15.1009 63.2122 15.1009H58.3561C58.024 15.1009 57.7608 15.3703 57.7608 15.6961V20.2828C57.7608 20.6149 58.0303 20.878 58.3561 20.878H63.2122C63.538 20.878 63.8075 21.1475 63.8075 21.4733V22.8581C63.8075 23.1902 63.538 23.4533 63.2122 23.4533H56.9651C56.044 23.4533 55.2795 22.7516 55.1855 21.8555V14.1171C55.2795 13.2211 56.044 12.5193 56.9651 12.5193H63.2122C63.538 12.5193 63.8075 12.7887 63.8075 13.1208Z" fill="#1C284C"/>
<path d="M74.6723 14.1986V22.8581C74.6723 23.1902 74.4029 23.4534 74.077 23.4534H72.6923C72.3602 23.4534 72.097 23.184 72.097 22.8581V15.6962C72.097 15.3641 71.8276 15.1009 71.5017 15.1009H68.6257V22.8581C68.6257 23.1902 68.3562 23.4534 68.0304 23.4534H66.6519C66.3198 23.4534 66.0566 23.184 66.0566 22.8581V9.65581C66.0566 9.32372 66.3261 9.06055 66.6519 9.06055H68.0304C68.3625 9.06055 68.6257 9.32998 68.6257 9.65581V12.5193H72.8928C73.8327 12.5193 74.6096 13.2587 74.6723 14.1986Z" fill="#1C284C"/>
<path d="M27.9022 24.8946L15.2199 32.2132C14.6184 32.5578 13.879 32.5578 13.2838 32.2132L0.971219 25.1014C0.36969 24.7567 0 24.1176 0 23.4221V10.1007C0 9.78742 0.33836 9.59317 0.607795 9.74982L3.62171 11.4855C3.92247 11.6609 4.10418 11.9805 4.10418 12.3251V21.6175C4.10418 21.9621 4.2859 22.2817 4.58666 22.4571L13.7662 27.7581C14.067 27.9336 14.4367 27.9336 14.7375 27.7581L23.9171 22.4571C24.2178 22.2817 24.5875 22.2817 24.8883 22.4571L27.9022 24.1991C28.1716 24.3494 28.1716 24.7379 27.9022 24.8946Z" fill="#00A29A"/>
<path d="M16.473 8.4339L19.4869 10.1696C19.7877 10.345 19.9694 10.6646 19.9694 11.0092V21.6112C19.9694 21.9558 19.7877 22.2753 19.4869 22.4508L16.473 24.1927C16.2036 24.3494 15.8652 24.1551 15.8652 23.8418V8.7848C15.8715 8.4715 16.2036 8.27726 16.473 8.4339Z" fill="#1C284C"/>
<path d="M12.0315 8.44644L9.01763 10.1821C8.71687 10.3576 8.53516 10.6771 8.53516 11.0217V21.6049C8.53516 21.9495 8.72313 22.2691 9.01763 22.4445L12.0315 24.1802C12.301 24.3369 12.6393 24.1426 12.6393 23.8293V8.79107C12.6393 8.48404 12.301 8.2898 12.0315 8.44644Z" fill="#1C284C"/>
<path d="M27.9031 8.43394L24.8892 10.1759C24.5884 10.3513 24.2188 10.3513 23.918 10.1759L14.7384 4.87489C14.4376 4.69945 14.068 4.69945 13.7672 4.87489L4.5876 10.1759C4.28683 10.3513 3.91714 10.3513 3.61638 10.1759L0.602467 8.43394C0.333032 8.2773 0.333032 7.88881 0.602467 7.73216L13.7672 0.131585C14.068 -0.0438615 14.4376 -0.0438615 14.7384 0.131585L27.9031 7.73216C28.1726 7.88881 28.1726 8.2773 27.9031 8.43394Z" fill="#1C284C"/>
</g>
<defs>
<clipPath id="clip0_93_5">
<rect width="118" height="32.4713" fill="white"/>
</clipPath>
</defs>
</svg>
